<svg width="24" height="25" viewBox="0 0 24 25" fill="none" xmlns="http://www.w3.org/2000/svg">
<path d="M20.25 7.68262H3.75C3.33579 7.68262 3 8.0184 3 8.43262V20.4326C3 20.8468 3.33579 21.1826 3.75 21.1826H20.25C20.6642 21.1826 21 20.8468 21 20.4326V8.43262C21 8.0184 20.6642 7.68262 20.25 7.68262Z" stroke="#637381" stroke-width="1.5" stroke-linecap="round" stroke-linejoin="round"/>
<path d="M15.75 7.68262V6.18262C15.75 5.78479 15.592 5.40326 15.3107 5.12196C15.0294 4.84065 14.6478 4.68262 14.25 4.68262H9.75C9.35218 4.68262 8.97064 4.84065 8.68934 5.12196C8.40804 5.40326 8.25 5.78479 8.25 6.18262V7.68262" stroke="#637381" stroke-width="1.5" stroke-linecap="round" stroke-linejoin="round"/>
<path d="M21 12.7725C18.2646 14.3544 15.1599 15.1856 12 15.1818C8.83955 15.1901 5.73363 14.3586 3 12.7725" stroke="#637381" stroke-width="1.5" stroke-linecap="round" stroke-linejoin="round"/>
<path d="M10.875 12.1826H13.125" stroke="#637381" stroke-width="1.5" stroke-linecap="round" stroke-linejoin="round"/>
</svg>
