<svg width="24" height="25" viewBox="0 0 24 25" fill="none" xmlns="http://www.w3.org/2000/svg">
<path d="M19.5 20.4326H4.5C4.10218 20.4326 3.72064 20.2746 3.43934 19.9933C3.15804 19.712 3 19.3304 3 18.9326V8.43262C3 8.03479 3.15804 7.65326 3.43934 7.37196C3.72064 7.09065 4.10218 6.93262 4.5 6.93262H7.5L9 4.68262H15L16.5 6.93262H19.5C19.8978 6.93262 20.2794 7.09065 20.5607 7.37196C20.842 7.65326 21 8.03479 21 8.43262V18.9326C21 19.3304 20.842 19.712 20.5607 19.9933C20.2794 20.2746 19.8978 20.4326 19.5 20.4326Z" stroke="#637381" stroke-width="1.5" stroke-linecap="round" stroke-linejoin="round"/>
<path d="M12 16.6826C13.864 16.6826 15.375 15.1716 15.375 13.3076C15.375 11.4437 13.864 9.93262 12 9.93262C10.136 9.93262 8.625 11.4437 8.625 13.3076C8.625 15.1716 10.136 16.6826 12 16.6826Z" stroke="#637381" stroke-width="1.5" stroke-linecap="round" stroke-linejoin="round"/>
</svg>
