<svg width="24" height="25" viewBox="0 0 24 25" fill="none" xmlns="http://www.w3.org/2000/svg">
<path d="M12 12.9326C16.5563 12.9326 20.25 10.9179 20.25 8.43262C20.25 5.94734 16.5563 3.93262 12 3.93262C7.44365 3.93262 3.75 5.94734 3.75 8.43262C3.75 10.9179 7.44365 12.9326 12 12.9326Z" stroke="#637381" stroke-width="1.5" stroke-linecap="round" stroke-linejoin="round"/>
<path d="M3.75 8.43262V12.9326C3.75 15.417 7.44375 17.4326 12 17.4326C16.5562 17.4326 20.25 15.417 20.25 12.9326V8.43262" stroke="#637381" stroke-width="1.5" stroke-linecap="round" stroke-linejoin="round"/>
<path d="M3.75 12.9326V17.4326C3.75 19.917 7.44375 21.9326 12 21.9326C16.5562 21.9326 20.25 19.917 20.25 17.4326V12.9326" stroke="#637381" stroke-width="1.5" stroke-linecap="round" stroke-linejoin="round"/>
</svg>
