<svg width="24" height="25" viewBox="0 0 24 25" fill="none" xmlns="http://www.w3.org/2000/svg">
<path d="M12 15.1826C13.2426 15.1826 14.25 14.1753 14.25 12.9326C14.25 11.69 13.2426 10.6826 12 10.6826C10.7574 10.6826 9.75 11.69 9.75 12.9326C9.75 14.1753 10.7574 15.1826 12 15.1826Z" stroke="#637381" stroke-width="1.5" stroke-linecap="round" stroke-linejoin="round"/>
<path d="M9 8.43262C10.2426 8.43262 11.25 7.42526 11.25 6.18262C11.25 4.93998 10.2426 3.93262 9 3.93262C7.75736 3.93262 6.75 4.93998 6.75 6.18262C6.75 7.42526 7.75736 8.43262 9 8.43262Z" stroke="#637381" stroke-width="1.5" stroke-linecap="round" stroke-linejoin="round"/>
<path d="M18.75 12.9326C19.9926 12.9326 21 11.9253 21 10.6826C21 9.43998 19.9926 8.43262 18.75 8.43262C17.5074 8.43262 16.5 9.43998 16.5 10.6826C16.5 11.9253 17.5074 12.9326 18.75 12.9326Z" stroke="#637381" stroke-width="1.5" stroke-linecap="round" stroke-linejoin="round"/>
<path d="M18.75 20.4326C19.9926 20.4326 21 19.4253 21 18.1826C21 16.94 19.9926 15.9326 18.75 15.9326C17.5074 15.9326 16.5 16.94 16.5 18.1826C16.5 19.4253 17.5074 20.4326 18.75 20.4326Z" stroke="#637381" stroke-width="1.5" stroke-linecap="round" stroke-linejoin="round"/>
<path d="M5.25 21.1826C6.49264 21.1826 7.5 20.1753 7.5 18.9326C7.5 17.69 6.49264 16.6826 5.25 16.6826C4.00736 16.6826 3 17.69 3 18.9326C3 20.1753 4.00736 21.1826 5.25 21.1826Z" stroke="#637381" stroke-width="1.5" stroke-linecap="round" stroke-linejoin="round"/>
<path d="M11.0914 10.8791L9.91016 8.23535" stroke="#637381" stroke-width="1.5" stroke-linecap="round" stroke-linejoin="round"/>
<path d="M16.6117 11.3955L14.1367 12.2205" stroke="#637381" stroke-width="1.5" stroke-linecap="round" stroke-linejoin="round"/>
<path d="M16.9777 16.8053L13.7715 14.3115" stroke="#637381" stroke-width="1.5" stroke-linecap="round" stroke-linejoin="round"/>
<path d="M10.3215 14.4229L6.92773 17.4416" stroke="#637381" stroke-width="1.5" stroke-linecap="round" stroke-linejoin="round"/>
</svg>
