<svg width="24" height="25" viewBox="0 0 24 25" fill="none" xmlns="http://www.w3.org/2000/svg">
<path d="M3 12.9326H6.75L8.25 10.6826L11.25 15.1826L12.75 12.9326H15" stroke="#637381" stroke-width="1.5" stroke-linecap="round" stroke-linejoin="round"/>
<path d="M2.63438 9.93263C2.625 9.81075 2.625 9.6795 2.625 9.55763C2.625 8.43064 3.01546 7.33847 3.72996 6.46693C4.44445 5.59539 5.43884 4.99831 6.54393 4.77729C7.64903 4.55627 8.79657 4.72496 9.79131 5.25466C10.7861 5.78435 11.5665 6.64233 12 7.68263V7.68263C12.4335 6.64233 13.2139 5.78435 14.2087 5.25466C15.2034 4.72496 16.351 4.55627 17.4561 4.77729C18.5612 4.99831 19.5555 5.59539 20.27 6.46693C20.9845 7.33847 21.375 8.43064 21.375 9.55763C21.375 15.9326 12 21.1826 12 21.1826C12 21.1826 8.25938 19.0826 5.50313 15.9326" stroke="#637381" stroke-width="1.5" stroke-linecap="round" stroke-linejoin="round"/>
</svg>
