<svg width="24" height="25" viewBox="0 0 24 25" fill="none" xmlns="http://www.w3.org/2000/svg">
<path d="M8.25 22.6826H15.75" stroke="#637381" stroke-width="1.5" stroke-linecap="round" stroke-linejoin="round"/>
<path d="M7.3782 16.5889C6.48532 15.8946 5.76216 15.0062 5.26351 13.9911C4.76485 12.9759 4.50378 11.8605 4.50008 10.7295C4.48133 6.66074 7.7532 3.27637 11.822 3.18262C13.3966 3.14529 14.9431 3.60468 16.242 4.49565C17.541 5.38661 18.5264 6.66392 19.0586 8.14641C19.5908 9.62891 19.6428 11.2413 19.2071 12.755C18.7714 14.2687 17.8702 15.6068 16.6313 16.5795C16.3577 16.791 16.136 17.0624 15.9832 17.3727C15.8305 17.6831 15.7507 18.0242 15.7501 18.3701V18.9326C15.7501 19.1315 15.6711 19.3223 15.5304 19.4629C15.3898 19.6036 15.199 19.6826 15.0001 19.6826H9.00008C8.80117 19.6826 8.6104 19.6036 8.46975 19.4629C8.3291 19.3223 8.25008 19.1315 8.25008 18.9326V18.3701C8.24773 18.0268 8.16814 17.6884 8.01721 17.3801C7.86628 17.0717 7.64788 16.8013 7.3782 16.5889V16.5889Z" stroke="#637381" stroke-width="1.5" stroke-linecap="round" stroke-linejoin="round"/>
<path d="M12.7598 6.25684C13.6764 6.41223 14.5223 6.84831 15.1805 7.50489C15.8388 8.16148 16.277 9.0062 16.4348 9.92246" stroke="#637381" stroke-width="1.5" stroke-linecap="round" stroke-linejoin="round"/>
</svg>
