<svg width="24" height="25" viewBox="0 0 24 25" fill="none" xmlns="http://www.w3.org/2000/svg">
<path d="M10.875 15.9326C11.9105 15.9326 12.75 15.0932 12.75 14.0576C12.75 13.0221 11.9105 12.1826 10.875 12.1826C9.83947 12.1826 9 13.0221 9 14.0576C9 15.0932 9.83947 15.9326 10.875 15.9326Z" stroke="#637381" stroke-width="1.5" stroke-linecap="round" stroke-linejoin="round"/>
<path d="M3 21.933L9.55313 15.3799" stroke="#637381" stroke-width="1.5" stroke-linecap="round" stroke-linejoin="round"/>
<path d="M3 21.9326L16.0781 19.7576C16.2072 19.7356 16.3281 19.6797 16.4286 19.5957C16.5291 19.5118 16.6055 19.4026 16.65 19.2795L18.75 13.6826L11.25 6.18262L5.65312 8.28262C5.52979 8.3296 5.42083 8.40791 5.33699 8.50984C5.25314 8.61177 5.19731 8.73379 5.175 8.86387L3 21.9326Z" stroke="#637381" stroke-width="1.5" stroke-linecap="round" stroke-linejoin="round"/>
<path d="M18.75 13.6826L21.2156 11.217C21.2865 11.1472 21.3428 11.064 21.3812 10.9723C21.4196 10.8805 21.4394 10.7821 21.4394 10.6826C21.4394 10.5832 21.4196 10.4847 21.3812 10.3929C21.3428 10.3012 21.2865 10.218 21.2156 10.1482L14.7844 3.71699C14.7146 3.64612 14.6314 3.58985 14.5397 3.55143C14.4479 3.51302 14.3495 3.49324 14.25 3.49324C14.1505 3.49324 14.0521 3.51302 13.9603 3.55143C13.8686 3.58985 13.7854 3.64612 13.7156 3.71699L11.25 6.18261" stroke="#637381" stroke-width="1.5" stroke-linecap="round" stroke-linejoin="round"/>
</svg>
