<svg width="24" height="25" viewBox="0 0 24 25" fill="none" xmlns="http://www.w3.org/2000/svg">
<path d="M8.70039 6.46387L7.97852 4.72949" stroke="#637381" stroke-width="1.5" stroke-linecap="round" stroke-linejoin="round"/>
<path d="M4.03125 11.133L2.29688 10.4111" stroke="#637381" stroke-width="1.5" stroke-linecap="round" stroke-linejoin="round"/>
<path d="M19.9688 11.133L21.7031 10.4111" stroke="#637381" stroke-width="1.5" stroke-linecap="round" stroke-linejoin="round"/>
<path d="M15.3008 6.46387L16.0227 4.72949" stroke="#637381" stroke-width="1.5" stroke-linecap="round" stroke-linejoin="round"/>
<path d="M22.5 15.9326H1.5" stroke="#637381" stroke-width="1.5" stroke-linecap="round" stroke-linejoin="round"/>
<path d="M19.5 19.6826H4.5" stroke="#637381" stroke-width="1.5" stroke-linecap="round" stroke-linejoin="round"/>
<path d="M6.58125 15.9321C6.3485 15.0964 6.31218 14.2182 6.47514 13.3662C6.63809 12.5142 6.99591 11.7114 7.5206 11.0206C8.0453 10.3298 8.72266 9.76966 9.49973 9.38408C10.2768 8.99849 11.1325 8.79785 12 8.79785C12.8675 8.79785 13.7232 8.99849 14.5003 9.38408C15.2773 9.76966 15.9547 10.3298 16.4794 11.0206C17.0041 11.7114 17.3619 12.5142 17.5249 13.3662C17.6878 14.2182 17.6515 15.0964 17.4188 15.9321" stroke="#637381" stroke-width="1.5" stroke-linecap="round" stroke-linejoin="round"/>
</svg>
