<svg width="24" height="24" viewBox="0 0 24 24" fill="none" xmlns="http://www.w3.org/2000/svg">
<path fill-rule="evenodd" clip-rule="evenodd" d="M14.2707 2.66963C13.5638 2.39815 12.7977 2.25 12.0002 2.25C8.77149 2.25 6.05913 4.67767 5.70259 7.88659L5.45079 10.1528L5.44463 10.2078C5.32778 11.2261 4.99631 12.2081 4.4721 13.0889L4.44369 13.1364L3.86566 14.0998L3.84623 14.1321C3.60056 14.5416 3.3875 14.8966 3.24722 15.1945C3.10511 15.4962 2.97348 15.8655 3.03773 16.2727C3.10366 16.6906 3.31872 17.0704 3.6431 17.3419C3.95923 17.6066 4.34366 17.6837 4.6755 17.7171C5.00308 17.75 5.41717 17.75 5.89464 17.75L5.93239 17.75H18.0679L18.1057 17.75C18.5831 17.75 18.9972 17.75 19.3248 17.7171C19.6567 17.6837 20.0411 17.6066 20.3572 17.3419C20.6816 17.0704 20.8967 16.6906 20.9626 16.2727C21.0268 15.8655 20.8952 15.4962 20.7531 15.1945C20.6128 14.8966 20.3998 14.5416 20.1541 14.1322L20.1541 14.1322L20.1347 14.0998L19.5566 13.1364L19.5282 13.0889C19.1334 12.4255 18.8479 11.7046 18.6811 10.954C18.4584 10.9843 18.2311 11 18.0002 11C17.709 11 17.4236 10.9751 17.1461 10.9273C17.3314 11.9598 17.7012 12.9521 18.2392 13.8561L18.2704 13.9081L18.8484 14.8715C19.1191 15.3227 19.2919 15.6124 19.3961 15.8336C19.46 15.9694 19.4749 16.0337 19.4783 16.0527C19.4676 16.1024 19.442 16.1477 19.4049 16.1824C19.3869 16.1893 19.3241 16.2096 19.1747 16.2246C18.9314 16.2491 18.5941 16.25 18.0679 16.25H5.93239C5.40625 16.25 5.06889 16.2491 4.82565 16.2246C4.67624 16.2096 4.61345 16.1893 4.5954 16.1824C4.55831 16.1477 4.53269 16.1024 4.52197 16.0527C4.52539 16.0337 4.54027 15.9694 4.60425 15.8336C4.70841 15.6124 4.8812 15.3227 5.1519 14.8715L5.72993 13.9081L5.7611 13.8561C6.39377 12.793 6.79382 11.6078 6.93485 10.3788L6.94161 10.3185L7.19341 8.05224C7.46555 5.60297 9.53581 3.75 12.0002 3.75C12.4971 3.75 12.978 3.82534 13.4313 3.96573C13.6436 3.48979 13.928 3.05312 14.2707 2.66963ZM16.7742 4.41972C16.3345 4.76129 16.0412 5.2823 16.0041 5.8728C16.3402 6.368 16.5875 6.93032 16.7219 7.53822C17.0685 7.82658 17.5141 8 18.0002 8C18.1047 8 18.2075 7.99197 18.3077 7.9765L18.2977 7.8866C18.1501 6.55813 17.5988 5.36357 16.7742 4.41972Z" fill="#0E2341"/>
<path d="M9.10222 17.6647C9.27315 18.6215 9.64978 19.467 10.1737 20.0701C10.6976 20.6731 11.3396 21 12 21C12.6604 21 13.3024 20.6731 13.8263 20.0701C14.3502 19.467 14.7269 18.6215 14.8978 17.6647" stroke="#0E2341" stroke-width="1.5" stroke-linecap="round"/>
<circle cx="18" cy="6" r="2.5" fill="#E00303" stroke="#E00303"/>
</svg>
