<svg width="24" height="25" viewBox="0 0 24 25" fill="none" xmlns="http://www.w3.org/2000/svg">
<path d="M8.70938 3.88899C8.57288 3.94637 8.45641 4.04286 8.37466 4.16632C8.29292 4.28978 8.24954 4.43467 8.25 4.58274L8.25 19.5827C8.24954 19.7308 8.29292 19.8757 8.37467 19.9992C8.45641 20.1226 8.57288 20.2191 8.70938 20.2765C8.84791 20.3305 8.99891 20.3442 9.14491 20.316C9.29091 20.2878 9.42594 20.2189 9.53438 20.1171L17.0344 12.6171C17.173 12.4738 17.2505 12.2821 17.2505 12.0827C17.2505 11.8833 17.173 11.6917 17.0344 11.5484L9.53438 4.04836C9.42594 3.94662 9.29091 3.87765 9.14491 3.84945C8.99891 3.82125 8.84791 3.83496 8.70938 3.88899Z" fill="#0E2341"/>
</svg>
