<svg width="21" height="21" viewBox="0 0 21 21" fill="none" xmlns="http://www.w3.org/2000/svg">
<mask id="path-1-outside-1_736_45007" maskUnits="userSpaceOnUse" x="0" y="0.5" width="21" height="20" fill="black">
<rect fill="white" y="0.5" width="21" height="20"/>
<path fill-rule="evenodd" clip-rule="evenodd" d="M1.15169 1.52079C1.12662 1.5309 1.08221 1.58532 1.05305 1.64174C1.00682 1.73109 1 2.53947 1 7.91795C1 12.5428 1.01047 14.1112 1.04172 14.1699C1.13286 14.341 1.03565 14.3356 4.02198 14.3368L6.84668 14.338V14.4426C6.84668 14.5002 6.85442 14.5688 6.86386 14.5951C6.8734 14.6215 6.49692 15.099 6.02018 15.6651C5.54671 16.2274 5.14981 16.7237 5.13823 16.7681C5.10706 16.8875 5.15128 17.0203 5.24211 17.0797C5.28619 17.1086 5.74693 17.2339 6.26595 17.3582L7.20967 17.5841L7.58705 18.4629C7.81974 19.0048 7.99844 19.3727 8.05317 19.4224C8.16196 19.5213 8.31495 19.5261 8.42905 19.4342C8.47611 19.3963 8.87777 18.9291 9.32165 18.396C9.76553 17.8628 10.1529 17.4266 10.1825 17.4266C10.2121 17.4266 10.5995 17.8628 11.0434 18.396C11.4873 18.9291 11.8889 19.3963 11.936 19.4342C12.0501 19.5261 12.2031 19.5213 12.3119 19.4224C12.3666 19.3727 12.5455 19.0045 12.7781 18.4629L13.1557 17.5841L14.0992 17.3581C14.6182 17.2339 15.0788 17.1086 15.1229 17.0797C15.2137 17.0203 15.258 16.8875 15.2268 16.7681C15.2152 16.7237 14.8183 16.2274 14.3448 15.6651C13.8681 15.099 13.4916 14.6215 13.5012 14.5951C13.5106 14.5688 13.5183 14.5002 13.5183 14.4426V14.338L16.343 14.3368C19.3294 14.3356 19.2322 14.341 19.3233 14.1699C19.3545 14.1112 19.365 12.5428 19.365 7.91795C19.365 1.33068 19.3715 1.5841 19.202 1.51907C19.1328 1.49252 1.21773 1.49425 1.15169 1.52079ZM18.7552 7.91738V13.7282H16.1368H13.5183L13.5181 13.6295C13.5171 13.22 13.1698 12.3936 12.8033 11.9286C12.3935 11.4085 11.7111 10.959 11.0613 10.7811C10.6345 10.6642 9.75118 10.6632 9.3275 10.779C8.3351 11.0503 7.56869 11.6971 7.12979 12.6337C6.99313 12.9254 6.84743 13.4383 6.84693 13.6295L6.84668 13.7282H4.22823H1.60978V7.91738V2.10657H10.1825H18.7552V7.91738ZM2.32357 2.82202L2.2179 2.92769L2.22769 3.58424L2.23749 4.24079L2.53341 4.25119L2.82933 4.26163V3.79386V3.32612H3.29563H3.76193V3.02123V2.71634H3.09559H2.42924L2.32357 2.82202ZM16.6031 3.02123V3.32612H17.0694H17.5357V3.79386V4.26163L17.8316 4.25119L18.1275 4.24079L18.1373 3.58424L18.1471 2.92769L18.0415 2.82202L17.9358 2.71634H17.2694H16.6031V3.02123ZM6.52385 5.17338V5.47827H10.1825H13.8412V5.17338V4.8685H10.1825H6.52385V5.17338ZM4.65866 7.00271V7.3076H10.1825H15.7064V7.00271V6.69782H10.1825H4.65866V7.00271ZM10.8102 11.3585C11.1708 11.445 11.3782 11.5337 11.6822 11.7315C12.6619 12.3689 13.1376 13.5829 12.8511 14.7146C12.8212 14.833 12.7232 15.082 12.6334 15.2681C12.4921 15.5611 12.4239 15.6524 12.1244 15.9497C11.735 16.3363 11.5076 16.4841 11.0527 16.6463C10.7523 16.7533 10.7141 16.7582 10.1825 16.7582C9.65183 16.7582 9.61237 16.7532 9.31469 16.6471C8.62629 16.4017 8.02451 15.8754 7.72687 15.2584C7.49982 14.7877 7.44401 14.5459 7.44401 14.0331C7.44401 13.5347 7.49928 13.2851 7.70617 12.8494C7.86314 12.5188 7.95227 12.393 8.23733 12.1001C8.89014 11.4291 9.89624 11.1391 10.8102 11.3585ZM2.21955 12.2424V12.9087L2.3244 13.0136L2.42924 13.1184H3.09559H3.76193V12.8135V12.5086H3.29563H2.82933V12.0423V11.576H2.52444H2.21955V12.2424ZM17.5357 12.0423V12.5086H17.0694H16.6031V12.8135V13.1184H17.2694H17.9358L18.0406 13.0136L18.1455 12.9087V12.2424V11.576H17.8406H17.5357V12.0423ZM9.77002 11.9331C8.3228 12.2475 7.58648 13.8893 8.34307 15.1148C8.66062 15.6291 9.07842 15.9474 9.63712 16.1008C9.99226 16.1982 10.5496 16.1803 10.89 16.0605C11.7246 15.7669 12.3113 14.9463 12.3138 14.0689C12.3155 13.4825 12.1345 13.0108 11.7485 12.5954C11.3368 12.1525 10.8675 11.9361 10.2722 11.9148C10.0749 11.9078 9.84893 11.916 9.77002 11.9331ZM10.5125 12.5484C11.2763 12.7082 11.8206 13.5011 11.6896 14.2632C11.6332 14.591 11.5098 14.8422 11.2919 15.0726C10.9783 15.4042 10.6275 15.5575 10.1825 15.5575C9.73752 15.5575 9.38668 15.4042 9.07308 15.0726C8.51861 14.4863 8.51728 13.6051 9.06992 13.0004C9.43141 12.6049 9.97235 12.4354 10.5125 12.5484ZM7.19181 15.5665C7.6 16.3736 8.36595 17.0124 9.22272 17.2604L9.42872 17.32L8.88562 17.9651C8.58691 18.3198 8.33102 18.5971 8.31696 18.5813C8.30289 18.5655 8.15684 18.2395 7.99234 17.8569C7.69376 17.1622 7.62518 17.0497 7.4798 17.0165C7.43737 17.0068 7.08356 16.9228 6.69359 16.8298L5.98449 16.6608L6.13891 16.4768C6.73559 15.7659 7.06817 15.3782 7.0813 15.3782C7.08969 15.3782 7.13941 15.4629 7.19181 15.5665ZM13.7937 15.9635C14.0431 16.263 14.2779 16.5424 14.3154 16.5844L14.3835 16.6607L13.7447 16.8119C13.3933 16.8951 13.0386 16.9793 12.9564 16.9991C12.8742 17.0189 12.7765 17.0635 12.7393 17.0982C12.7021 17.1328 12.5371 17.4742 12.3727 17.8569C12.2082 18.2395 12.0621 18.5655 12.0481 18.5813C12.034 18.5971 11.7793 18.3212 11.4821 17.9682L10.9416 17.3264L11.145 17.263C12.0351 16.9858 12.7638 16.376 13.1739 15.5652C13.2267 15.4608 13.2856 15.3853 13.305 15.3973C13.3243 15.4092 13.5442 15.664 13.7937 15.9635Z"/>
</mask>
<path fill-rule="evenodd" clip-rule="evenodd" d="M1.15169 1.52079C1.12662 1.5309 1.08221 1.58532 1.05305 1.64174C1.00682 1.73109 1 2.53947 1 7.91795C1 12.5428 1.01047 14.1112 1.04172 14.1699C1.13286 14.341 1.03565 14.3356 4.02198 14.3368L6.84668 14.338V14.4426C6.84668 14.5002 6.85442 14.5688 6.86386 14.5951C6.8734 14.6215 6.49692 15.099 6.02018 15.6651C5.54671 16.2274 5.14981 16.7237 5.13823 16.7681C5.10706 16.8875 5.15128 17.0203 5.24211 17.0797C5.28619 17.1086 5.74693 17.2339 6.26595 17.3582L7.20967 17.5841L7.58705 18.4629C7.81974 19.0048 7.99844 19.3727 8.05317 19.4224C8.16196 19.5213 8.31495 19.5261 8.42905 19.4342C8.47611 19.3963 8.87777 18.9291 9.32165 18.396C9.76553 17.8628 10.1529 17.4266 10.1825 17.4266C10.2121 17.4266 10.5995 17.8628 11.0434 18.396C11.4873 18.9291 11.8889 19.3963 11.936 19.4342C12.0501 19.5261 12.2031 19.5213 12.3119 19.4224C12.3666 19.3727 12.5455 19.0045 12.7781 18.4629L13.1557 17.5841L14.0992 17.3581C14.6182 17.2339 15.0788 17.1086 15.1229 17.0797C15.2137 17.0203 15.258 16.8875 15.2268 16.7681C15.2152 16.7237 14.8183 16.2274 14.3448 15.6651C13.8681 15.099 13.4916 14.6215 13.5012 14.5951C13.5106 14.5688 13.5183 14.5002 13.5183 14.4426V14.338L16.343 14.3368C19.3294 14.3356 19.2322 14.341 19.3233 14.1699C19.3545 14.1112 19.365 12.5428 19.365 7.91795C19.365 1.33068 19.3715 1.5841 19.202 1.51907C19.1328 1.49252 1.21773 1.49425 1.15169 1.52079ZM18.7552 7.91738V13.7282H16.1368H13.5183L13.5181 13.6295C13.5171 13.22 13.1698 12.3936 12.8033 11.9286C12.3935 11.4085 11.7111 10.959 11.0613 10.7811C10.6345 10.6642 9.75118 10.6632 9.3275 10.779C8.3351 11.0503 7.56869 11.6971 7.12979 12.6337C6.99313 12.9254 6.84743 13.4383 6.84693 13.6295L6.84668 13.7282H4.22823H1.60978V7.91738V2.10657H10.1825H18.7552V7.91738ZM2.32357 2.82202L2.2179 2.92769L2.22769 3.58424L2.23749 4.24079L2.53341 4.25119L2.82933 4.26163V3.79386V3.32612H3.29563H3.76193V3.02123V2.71634H3.09559H2.42924L2.32357 2.82202ZM16.6031 3.02123V3.32612H17.0694H17.5357V3.79386V4.26163L17.8316 4.25119L18.1275 4.24079L18.1373 3.58424L18.1471 2.92769L18.0415 2.82202L17.9358 2.71634H17.2694H16.6031V3.02123ZM6.52385 5.17338V5.47827H10.1825H13.8412V5.17338V4.8685H10.1825H6.52385V5.17338ZM4.65866 7.00271V7.3076H10.1825H15.7064V7.00271V6.69782H10.1825H4.65866V7.00271ZM10.8102 11.3585C11.1708 11.445 11.3782 11.5337 11.6822 11.7315C12.6619 12.3689 13.1376 13.5829 12.8511 14.7146C12.8212 14.833 12.7232 15.082 12.6334 15.2681C12.4921 15.5611 12.4239 15.6524 12.1244 15.9497C11.735 16.3363 11.5076 16.4841 11.0527 16.6463C10.7523 16.7533 10.7141 16.7582 10.1825 16.7582C9.65183 16.7582 9.61237 16.7532 9.31469 16.6471C8.62629 16.4017 8.02451 15.8754 7.72687 15.2584C7.49982 14.7877 7.44401 14.5459 7.44401 14.0331C7.44401 13.5347 7.49928 13.2851 7.70617 12.8494C7.86314 12.5188 7.95227 12.393 8.23733 12.1001C8.89014 11.4291 9.89624 11.1391 10.8102 11.3585ZM2.21955 12.2424V12.9087L2.3244 13.0136L2.42924 13.1184H3.09559H3.76193V12.8135V12.5086H3.29563H2.82933V12.0423V11.576H2.52444H2.21955V12.2424ZM17.5357 12.0423V12.5086H17.0694H16.6031V12.8135V13.1184H17.2694H17.9358L18.0406 13.0136L18.1455 12.9087V12.2424V11.576H17.8406H17.5357V12.0423ZM9.77002 11.9331C8.3228 12.2475 7.58648 13.8893 8.34307 15.1148C8.66062 15.6291 9.07842 15.9474 9.63712 16.1008C9.99226 16.1982 10.5496 16.1803 10.89 16.0605C11.7246 15.7669 12.3113 14.9463 12.3138 14.0689C12.3155 13.4825 12.1345 13.0108 11.7485 12.5954C11.3368 12.1525 10.8675 11.9361 10.2722 11.9148C10.0749 11.9078 9.84893 11.916 9.77002 11.9331ZM10.5125 12.5484C11.2763 12.7082 11.8206 13.5011 11.6896 14.2632C11.6332 14.591 11.5098 14.8422 11.2919 15.0726C10.9783 15.4042 10.6275 15.5575 10.1825 15.5575C9.73752 15.5575 9.38668 15.4042 9.07308 15.0726C8.51861 14.4863 8.51728 13.6051 9.06992 13.0004C9.43141 12.6049 9.97235 12.4354 10.5125 12.5484ZM7.19181 15.5665C7.6 16.3736 8.36595 17.0124 9.22272 17.2604L9.42872 17.32L8.88562 17.9651C8.58691 18.3198 8.33102 18.5971 8.31696 18.5813C8.30289 18.5655 8.15684 18.2395 7.99234 17.8569C7.69376 17.1622 7.62518 17.0497 7.4798 17.0165C7.43737 17.0068 7.08356 16.9228 6.69359 16.8298L5.98449 16.6608L6.13891 16.4768C6.73559 15.7659 7.06817 15.3782 7.0813 15.3782C7.08969 15.3782 7.13941 15.4629 7.19181 15.5665ZM13.7937 15.9635C14.0431 16.263 14.2779 16.5424 14.3154 16.5844L14.3835 16.6607L13.7447 16.8119C13.3933 16.8951 13.0386 16.9793 12.9564 16.9991C12.8742 17.0189 12.7765 17.0635 12.7393 17.0982C12.7021 17.1328 12.5371 17.4742 12.3727 17.8569C12.2082 18.2395 12.0621 18.5655 12.0481 18.5813C12.034 18.5971 11.7793 18.3212 11.4821 17.9682L10.9416 17.3264L11.145 17.263C12.0351 16.9858 12.7638 16.376 13.1739 15.5652C13.2267 15.4608 13.2856 15.3853 13.305 15.3973C13.3243 15.4092 13.5442 15.664 13.7937 15.9635Z" fill="white"/>
<path fill-rule="evenodd" clip-rule="evenodd" d="M1.15169 1.52079C1.12662 1.5309 1.08221 1.58532 1.05305 1.64174C1.00682 1.73109 1 2.53947 1 7.91795C1 12.5428 1.01047 14.1112 1.04172 14.1699C1.13286 14.341 1.03565 14.3356 4.02198 14.3368L6.84668 14.338V14.4426C6.84668 14.5002 6.85442 14.5688 6.86386 14.5951C6.8734 14.6215 6.49692 15.099 6.02018 15.6651C5.54671 16.2274 5.14981 16.7237 5.13823 16.7681C5.10706 16.8875 5.15128 17.0203 5.24211 17.0797C5.28619 17.1086 5.74693 17.2339 6.26595 17.3582L7.20967 17.5841L7.58705 18.4629C7.81974 19.0048 7.99844 19.3727 8.05317 19.4224C8.16196 19.5213 8.31495 19.5261 8.42905 19.4342C8.47611 19.3963 8.87777 18.9291 9.32165 18.396C9.76553 17.8628 10.1529 17.4266 10.1825 17.4266C10.2121 17.4266 10.5995 17.8628 11.0434 18.396C11.4873 18.9291 11.8889 19.3963 11.936 19.4342C12.0501 19.5261 12.2031 19.5213 12.3119 19.4224C12.3666 19.3727 12.5455 19.0045 12.7781 18.4629L13.1557 17.5841L14.0992 17.3581C14.6182 17.2339 15.0788 17.1086 15.1229 17.0797C15.2137 17.0203 15.258 16.8875 15.2268 16.7681C15.2152 16.7237 14.8183 16.2274 14.3448 15.6651C13.8681 15.099 13.4916 14.6215 13.5012 14.5951C13.5106 14.5688 13.5183 14.5002 13.5183 14.4426V14.338L16.343 14.3368C19.3294 14.3356 19.2322 14.341 19.3233 14.1699C19.3545 14.1112 19.365 12.5428 19.365 7.91795C19.365 1.33068 19.3715 1.5841 19.202 1.51907C19.1328 1.49252 1.21773 1.49425 1.15169 1.52079ZM18.7552 7.91738V13.7282H16.1368H13.5183L13.5181 13.6295C13.5171 13.22 13.1698 12.3936 12.8033 11.9286C12.3935 11.4085 11.7111 10.959 11.0613 10.7811C10.6345 10.6642 9.75118 10.6632 9.3275 10.779C8.3351 11.0503 7.56869 11.6971 7.12979 12.6337C6.99313 12.9254 6.84743 13.4383 6.84693 13.6295L6.84668 13.7282H4.22823H1.60978V7.91738V2.10657H10.1825H18.7552V7.91738ZM2.32357 2.82202L2.2179 2.92769L2.22769 3.58424L2.23749 4.24079L2.53341 4.25119L2.82933 4.26163V3.79386V3.32612H3.29563H3.76193V3.02123V2.71634H3.09559H2.42924L2.32357 2.82202ZM16.6031 3.02123V3.32612H17.0694H17.5357V3.79386V4.26163L17.8316 4.25119L18.1275 4.24079L18.1373 3.58424L18.1471 2.92769L18.0415 2.82202L17.9358 2.71634H17.2694H16.6031V3.02123ZM6.52385 5.17338V5.47827H10.1825H13.8412V5.17338V4.8685H10.1825H6.52385V5.17338ZM4.65866 7.00271V7.3076H10.1825H15.7064V7.00271V6.69782H10.1825H4.65866V7.00271ZM10.8102 11.3585C11.1708 11.445 11.3782 11.5337 11.6822 11.7315C12.6619 12.3689 13.1376 13.5829 12.8511 14.7146C12.8212 14.833 12.7232 15.082 12.6334 15.2681C12.4921 15.5611 12.4239 15.6524 12.1244 15.9497C11.735 16.3363 11.5076 16.4841 11.0527 16.6463C10.7523 16.7533 10.7141 16.7582 10.1825 16.7582C9.65183 16.7582 9.61237 16.7532 9.31469 16.6471C8.62629 16.4017 8.02451 15.8754 7.72687 15.2584C7.49982 14.7877 7.44401 14.5459 7.44401 14.0331C7.44401 13.5347 7.49928 13.2851 7.70617 12.8494C7.86314 12.5188 7.95227 12.393 8.23733 12.1001C8.89014 11.4291 9.89624 11.1391 10.8102 11.3585ZM2.21955 12.2424V12.9087L2.3244 13.0136L2.42924 13.1184H3.09559H3.76193V12.8135V12.5086H3.29563H2.82933V12.0423V11.576H2.52444H2.21955V12.2424ZM17.5357 12.0423V12.5086H17.0694H16.6031V12.8135V13.1184H17.2694H17.9358L18.0406 13.0136L18.1455 12.9087V12.2424V11.576H17.8406H17.5357V12.0423ZM9.77002 11.9331C8.3228 12.2475 7.58648 13.8893 8.34307 15.1148C8.66062 15.6291 9.07842 15.9474 9.63712 16.1008C9.99226 16.1982 10.5496 16.1803 10.89 16.0605C11.7246 15.7669 12.3113 14.9463 12.3138 14.0689C12.3155 13.4825 12.1345 13.0108 11.7485 12.5954C11.3368 12.1525 10.8675 11.9361 10.2722 11.9148C10.0749 11.9078 9.84893 11.916 9.77002 11.9331ZM10.5125 12.5484C11.2763 12.7082 11.8206 13.5011 11.6896 14.2632C11.6332 14.591 11.5098 14.8422 11.2919 15.0726C10.9783 15.4042 10.6275 15.5575 10.1825 15.5575C9.73752 15.5575 9.38668 15.4042 9.07308 15.0726C8.51861 14.4863 8.51728 13.6051 9.06992 13.0004C9.43141 12.6049 9.97235 12.4354 10.5125 12.5484ZM7.19181 15.5665C7.6 16.3736 8.36595 17.0124 9.22272 17.2604L9.42872 17.32L8.88562 17.9651C8.58691 18.3198 8.33102 18.5971 8.31696 18.5813C8.30289 18.5655 8.15684 18.2395 7.99234 17.8569C7.69376 17.1622 7.62518 17.0497 7.4798 17.0165C7.43737 17.0068 7.08356 16.9228 6.69359 16.8298L5.98449 16.6608L6.13891 16.4768C6.73559 15.7659 7.06817 15.3782 7.0813 15.3782C7.08969 15.3782 7.13941 15.4629 7.19181 15.5665ZM13.7937 15.9635C14.0431 16.263 14.2779 16.5424 14.3154 16.5844L14.3835 16.6607L13.7447 16.8119C13.3933 16.8951 13.0386 16.9793 12.9564 16.9991C12.8742 17.0189 12.7765 17.0635 12.7393 17.0982C12.7021 17.1328 12.5371 17.4742 12.3727 17.8569C12.2082 18.2395 12.0621 18.5655 12.0481 18.5813C12.034 18.5971 11.7793 18.3212 11.4821 17.9682L10.9416 17.3264L11.145 17.263C12.0351 16.9858 12.7638 16.376 13.1739 15.5652C13.2267 15.4608 13.2856 15.3853 13.305 15.3973C13.3243 15.4092 13.5442 15.664 13.7937 15.9635Z" stroke="#637381" stroke-width="1.4" mask="url(#path-1-outside-1_736_45007)"/>
</svg>
