<svg width="20" height="20" viewBox="0 0 20 20" fill="none" xmlns="http://www.w3.org/2000/svg">
<path d="M11.6654 10C11.6654 10.9205 10.9192 11.6667 9.9987 11.6667C9.07822 11.6667 8.33203 10.9205 8.33203 10C8.33203 9.07953 9.07822 8.33333 9.9987 8.33333C10.9192 8.33333 11.6654 9.07953 11.6654 10Z" fill="#637381"/>
<path d="M11.6654 4.16667C11.6654 5.08714 10.9192 5.83333 9.9987 5.83333C9.07822 5.83333 8.33203 5.08714 8.33203 4.16667C8.33203 3.24619 9.07822 2.5 9.9987 2.5C10.9192 2.5 11.6654 3.24619 11.6654 4.16667Z" fill="#637381"/>
<path d="M11.6654 15.8333C11.6654 16.7538 10.9192 17.5 9.9987 17.5C9.07822 17.5 8.33203 16.7538 8.33203 15.8333C8.33203 14.9129 9.07822 14.1667 9.9987 14.1667C10.9192 14.1667 11.6654 14.9129 11.6654 15.8333Z" fill="#637381"/>
</svg>
