<svg width="25" height="24" viewBox="0 0 25 24" fill="none" xmlns="http://www.w3.org/2000/svg">
<path d="M17.333 3.49991C17.333 3.22377 17.1091 2.99991 16.833 2.99991H14.333C11.7123 2.86936 9.47828 4.88 9.33301 7.49991V10.1999H6.83301C6.55687 10.1999 6.33301 10.4238 6.33301 10.6999V13.2999C6.33301 13.5761 6.55687 13.7999 6.83301 13.7999H9.33301V20.4999C9.33301 20.7761 9.55687 20.9999 9.83301 20.9999H12.833C13.1092 20.9999 13.333 20.7761 13.333 20.4999V13.7999H15.953C16.1818 13.8032 16.3836 13.6508 16.443 13.4299L17.163 10.8299C17.2033 10.6802 17.1719 10.5202 17.0779 10.3969C16.9839 10.2735 16.8381 10.2008 16.683 10.1999H13.333V7.49991C13.3845 6.98701 13.8175 6.59733 14.333 6.59991H16.833C17.1091 6.59991 17.333 6.37605 17.333 6.09991V3.49991Z" fill="#1877F2"/>
</svg>
