<svg width="20" height="20" viewBox="0 0 20 20" fill="none" xmlns="http://www.w3.org/2000/svg">
<path d="M13.125 14.3751C13.8154 14.3751 14.375 13.8154 14.375 13.1251C14.375 12.4347 13.8154 11.8751 13.125 11.8751C12.4346 11.8751 11.875 12.4347 11.875 13.1251C11.875 13.8154 12.4346 14.3751 13.125 14.3751Z" fill="#0E2341"/>
<path d="M4.375 5.62507C5.06536 5.62507 5.625 5.06543 5.625 4.37507C5.625 3.68471 5.06536 3.12507 4.375 3.12507C3.68464 3.12507 3.125 3.68471 3.125 4.37507C3.125 5.06543 3.68464 5.62507 4.375 5.62507Z" fill="#0E2341"/>
<path d="M16.875 19.3751C16.3805 19.3751 15.8972 19.2284 15.4861 18.9537C15.075 18.679 14.7545 18.2886 14.5653 17.8318C14.3761 17.375 14.3266 16.8723 14.423 16.3873C14.5195 15.9024 14.7576 15.4569 15.1072 15.1073C15.4569 14.7577 15.9023 14.5196 16.3873 14.4231C16.8722 14.3266 17.3749 14.3762 17.8317 14.5654C18.2885 14.7546 18.679 15.075 18.9537 15.4861C19.2284 15.8973 19.375 16.3806 19.375 16.8751C19.3731 17.5375 19.109 18.1723 18.6406 18.6407C18.1722 19.1091 17.5374 19.3731 16.875 19.3751ZM16.875 15.6251C16.6278 15.6251 16.3861 15.6984 16.1805 15.8357C15.975 15.9731 15.8148 16.1683 15.7201 16.3967C15.6255 16.6251 15.6008 16.8765 15.649 17.1189C15.6972 17.3614 15.8163 17.5841 15.9911 17.759C16.1659 17.9338 16.3887 18.0528 16.6311 18.101C16.8736 18.1493 17.1249 18.1245 17.3534 18.0299C17.5818 17.9353 17.777 17.7751 17.9143 17.5695C18.0517 17.364 18.125 17.1223 18.125 16.8751C18.124 16.5438 17.992 16.2265 17.7578 15.9923C17.5236 15.758 17.2062 15.626 16.875 15.6251Z" fill="#0E2341"/>
<path d="M18.75 10.0001C18.7432 7.68154 17.8192 5.45989 16.1797 3.82042C14.5402 2.18094 12.3186 1.25689 10 1.2501C8.50704 1.22879 7.0369 1.61794 5.75 2.3751L6.4375 3.4376C6.92605 3.20278 7.42676 2.99415 7.9375 2.8126C6.90431 4.85129 6.32841 7.09089 6.25 9.3751H2.5C2.57003 8.34312 2.86893 7.33968 3.375 6.4376L2.4375 5.6251C1.65982 6.95195 1.24991 8.46213 1.25 10.0001C1.24986 11.1492 1.47609 12.2871 1.91577 13.3487C2.35545 14.4104 2.99996 15.3751 3.8125 16.1876C4.62504 17.0001 5.58969 17.6446 6.65135 18.0843C7.71302 18.524 8.85089 18.7502 10 18.7501C11.1142 18.7606 12.2192 18.5481 13.25 18.1251L12.875 16.9376C11.8503 17.3758 10.7374 17.5684 9.625 17.5001C8.29217 15.4501 7.55637 13.0696 7.5 10.6251H18.6875C18.7392 10.421 18.7602 10.2104 18.75 10.0001ZM8 17.2501C6.75716 16.8776 5.62142 16.2133 4.6875 15.3126C3.44742 14.0437 2.67598 12.3906 2.5 10.6251H6.25C6.336 12.9357 6.93371 15.1984 8 17.2501ZM7.5 9.3751C7.54972 6.93854 8.26278 4.56165 9.5625 2.5001H10.4375C11.7372 4.56165 12.4503 6.93854 12.5 9.3751H7.5ZM13.75 9.3751C13.7025 7.05893 13.1025 4.7876 12 2.7501C13.4705 3.17395 14.7778 4.03428 15.7487 5.21726C16.7196 6.40024 17.3085 7.85013 17.4375 9.3751H13.75Z" fill="#0E2341"/>
</svg>
