<svg width="24" height="24" viewBox="0 0 24 24" fill="none" xmlns="http://www.w3.org/2000/svg">
<path d="M6.18173 12.2128C6.18173 11.5642 6.28946 10.9423 6.48173 10.359L3.11627 7.78906C2.46037 9.12081 2.09082 10.6214 2.09082 12.2128C2.09082 13.8028 2.45991 15.3025 3.11491 16.6333L6.47855 14.0583C6.28809 13.4778 6.18173 12.8582 6.18173 12.2128Z" fill="#FBBC05"/>
<path d="M12.0908 6.31216C13.4998 6.31216 14.7726 6.81145 15.7726 7.62847L18.6817 4.7235C16.9089 3.18024 14.6362 2.22705 12.0908 2.22705C8.13894 2.22705 4.74257 4.48702 3.11621 7.78915L6.48167 10.3591C7.25712 8.00521 9.46757 6.31216 12.0908 6.31216Z" fill="#EB4335"/>
<path d="M12.0908 18.1136C9.46757 18.1136 7.25712 16.4206 6.48167 14.0667L3.11621 16.6362C4.74257 19.9388 8.13894 22.1987 12.0908 22.1987C14.5298 22.1987 16.8585 21.3327 18.6062 19.71L15.4117 17.2403C14.5103 17.8082 13.3753 18.1136 12.0908 18.1136Z" fill="#3789FF"/>
<path d="M21.6363 12.2128C21.6363 11.6227 21.5454 10.9873 21.409 10.3972H12.0908V14.2554H17.4545C17.1863 15.5708 16.4563 16.5821 15.4117 17.2402L18.6063 19.7099C20.4422 18.006 21.6363 15.4677 21.6363 12.2128Z" fill="#4285F4"/>
</svg>
