<svg width="18" height="18" viewBox="0 0 18 18" fill="none" xmlns="http://www.w3.org/2000/svg">
<path fill-rule="evenodd" clip-rule="evenodd" d="M9 1.6875C4.65076 1.6875 1.125 5.21326 1.125 9.5625C1.125 13.9117 4.65076 17.4375 9 17.4375C13.3492 17.4375 16.875 13.9117 16.875 9.5625C16.875 7.47392 16.0453 5.47088 14.5685 3.99403C13.0916 2.51719 11.0886 1.6875 9 1.6875ZM9.7875 12.7125C9.7875 13.1474 9.43492 13.5 9 13.5C8.56508 13.5 8.2125 13.1474 8.2125 12.7125V8.775C8.2125 8.34008 8.56508 7.9875 9 7.9875C9.43492 7.9875 9.7875 8.34008 9.7875 8.775V12.7125ZM8.2125 6.4125C8.2125 6.84742 8.56508 7.2 9 7.2C9.43492 7.2 9.7875 6.84742 9.7875 6.4125C9.7875 5.97758 9.43492 5.625 9 5.625C8.56508 5.625 8.2125 5.97758 8.2125 6.4125Z" fill="#637381"/>
</svg>
