<svg width="22" height="20" viewBox="0 0 22 20" fill="none" xmlns="http://www.w3.org/2000/svg">
<g clip-path="url(#clip0_736_45019)">
<path d="M0.952148 2.39632C0.952148 1.72932 1.18524 1.17905 1.65139 0.745526C2.11754 0.311979 2.72357 0.0952148 3.46942 0.0952148C4.20196 0.0952148 4.79464 0.308637 5.24749 0.735522C5.71364 1.17573 5.94673 1.74933 5.94673 2.45635C5.94673 3.09665 5.72031 3.63023 5.26746 4.05711C4.80131 4.49732 4.18864 4.71743 3.42946 4.71743H3.40948C2.67694 4.71743 2.08426 4.49732 1.63141 4.05711C1.17856 3.6169 0.952148 3.0633 0.952148 2.39632ZM1.21187 19.9047V6.5383H5.64705V19.9047H1.21187ZM8.10439 19.9047H12.5396V12.4411C12.5396 11.9742 12.5929 11.6141 12.6994 11.3606C12.8859 10.9071 13.1689 10.5235 13.5485 10.2101C13.9281 9.89657 14.4042 9.73984 14.9769 9.73984C16.4686 9.73984 17.2145 10.747 17.2145 12.7613V19.9047H21.6497V12.241C21.6497 10.2667 21.1835 8.76937 20.2512 7.74888C19.3189 6.72839 18.0869 6.21815 16.5552 6.21815C14.8371 6.21815 13.4985 6.9585 12.5396 8.43921V8.47923H12.5196L12.5396 8.43921V6.5383H8.10439C8.13102 6.96517 8.14434 8.29246 8.14434 10.5202C8.14434 12.7479 8.13102 15.8761 8.10439 19.9047Z" fill="#A6B3BB"/>
</g>
<defs>
<clipPath id="clip0_736_45019">
<rect width="20.6975" height="19.8095" fill="white" transform="translate(0.952148 0.0952148)"/>
</clipPath>
</defs>
</svg>
