<svg width="43" height="35" viewBox="0 0 43 35" fill="none" xmlns="http://www.w3.org/2000/svg">
<path d="M42.28 34.65H26.04C24.4533 29.5167 23.66 24.1967 23.66 18.69C23.66 13.09 25.1067 8.65667 28 5.39C30.9867 2.03 35.3733 0.350006 41.16 0.350006V8.19001C36.4933 8.19001 34.16 11.0367 34.16 16.73V19.39H42.28V34.65ZM18.62 34.65H2.38C0.793333 29.5167 0 24.1967 0 18.69C0 13.09 1.44667 8.65667 4.34 5.39C7.32667 2.03 11.7133 0.350006 17.5 0.350006V8.19001C12.8333 8.19001 10.5 11.0367 10.5 16.73V19.39H18.62V34.65Z" fill="#9DA6BA"/>
</svg>
