<svg width="16" height="17" viewBox="0 0 16 17" fill="none" xmlns="http://www.w3.org/2000/svg">
<path d="M14.9498 6.17002C14.8872 5.97313 14.7666 5.79975 14.6038 5.67261C14.4409 5.54546 14.2435 5.47049 14.0373 5.45752L10.3248 5.20127L8.94978 1.73252C8.8747 1.54152 8.74401 1.37746 8.57464 1.26157C8.40526 1.14568 8.205 1.08331 7.99978 1.08252C7.79455 1.08331 7.59429 1.14568 7.42492 1.26157C7.25555 1.37746 7.12486 1.54152 7.04978 1.73252L5.64978 5.22002L1.96228 5.45752C1.75634 5.47133 1.55929 5.54662 1.39661 5.67364C1.23393 5.80066 1.11311 5.97358 1.04978 6.17002C0.984741 6.36947 0.980941 6.58383 1.03887 6.78546C1.0968 6.9871 1.21379 7.16675 1.37478 7.30127L4.21228 9.70127L3.36853 13.02C3.31015 13.2445 3.32066 13.4814 3.39868 13.6999C3.4767 13.9183 3.61863 14.1083 3.80603 14.245C3.98792 14.3756 4.20463 14.4489 4.42843 14.4556C4.65222 14.4622 4.87292 14.402 5.06228 14.2825L7.99353 12.4263H8.00603L11.1623 14.42C11.3242 14.5252 11.5129 14.5816 11.706 14.5825C11.8637 14.5813 12.019 14.5439 12.1599 14.4733C12.3009 14.4026 12.4237 14.3006 12.5191 14.1751C12.6145 14.0495 12.6798 13.9038 12.71 13.7491C12.7403 13.5943 12.7346 13.4347 12.6935 13.2825L11.7998 9.65127L14.6248 7.30127C14.7858 7.16675 14.9028 6.9871 14.9607 6.78546C15.0186 6.58383 15.0148 6.36947 14.9498 6.17002Z" fill="#51525B"/>
</svg>
