<svg width="16" height="14" viewBox="0 0 16 14" fill="none" xmlns="http://www.w3.org/2000/svg">
<path d="M14.9501 5.52012C14.8875 5.32323 14.7669 5.14985 14.6041 5.0227C14.4413 4.89556 14.2438 4.82059 14.0376 4.80762L10.3251 4.55137L8.95011 1.08262C8.87503 0.891619 8.74435 0.727557 8.57497 0.61167C8.4056 0.495782 8.20534 0.433406 8.00011 0.432617C7.79489 0.433406 7.59463 0.495782 7.42526 0.61167C7.25588 0.727557 7.1252 0.891619 7.05011 1.08262L5.65011 4.57012L1.96261 4.80762C1.75668 4.82143 1.55963 4.89671 1.39695 5.02374C1.23427 5.15076 1.11345 5.32368 1.05011 5.52012C0.985077 5.71957 0.981277 5.93393 1.0392 6.13556C1.09713 6.33719 1.21413 6.51685 1.37511 6.65137L4.21261 9.05137L3.36886 12.3701C3.31049 12.5946 3.32099 12.8315 3.39902 13.05C3.47704 13.2684 3.61897 13.4584 3.80636 13.5951C3.98826 13.7257 4.20497 13.799 4.42876 13.8057C4.65256 13.8123 4.87326 13.7521 5.06261 13.6326L7.99386 11.7764H8.00636L11.1626 13.7701C11.3245 13.8753 11.5133 13.9317 11.7064 13.9326C11.864 13.9314 12.0193 13.894 12.1602 13.8234C12.3012 13.7527 12.4241 13.6507 12.5195 13.5252C12.6148 13.3996 12.6801 13.2539 12.7104 13.0992C12.7406 12.9444 12.735 12.7848 12.6939 12.6326L11.8001 9.00137L14.6251 6.65137C14.7861 6.51685 14.9031 6.33719 14.961 6.13556C15.019 5.93393 15.0152 5.71957 14.9501 5.52012Z" fill="#FDAE53"/>
</svg>
