<svg width="16" height="14" viewBox="0 0 16 14" fill="none" xmlns="http://www.w3.org/2000/svg">
<path d="M14.4736 5.67157L14.4736 5.67157L14.4747 5.67512C14.5088 5.7796 14.5108 5.89188 14.4805 5.9975C14.4502 6.10296 14.389 6.19694 14.3049 6.26736C14.3048 6.26747 14.3046 6.26758 14.3045 6.26768L11.4804 8.61698L11.2398 8.81706L11.3146 9.12086L12.2084 12.7521L12.2082 12.7521L12.2111 12.7629C12.2323 12.8413 12.2352 12.9236 12.2196 13.0033C12.2041 13.083 12.1704 13.1581 12.1213 13.2227C12.0722 13.2874 12.0089 13.34 11.9363 13.3764C11.8646 13.4123 11.7857 13.4315 11.7056 13.4326C11.6095 13.4316 11.5157 13.4032 11.4351 13.3509L11.4351 13.3508L11.4296 13.3474L8.27339 11.3536L8.15106 11.2764H8.00636H7.99386H7.84886L7.72636 11.3539L4.79582 13.2097C4.79574 13.2098 4.79565 13.2099 4.79556 13.2099C4.69042 13.2762 4.56791 13.3096 4.44368 13.3059C4.31999 13.3022 4.2002 13.2619 4.09947 13.19C3.99391 13.1125 3.91394 13.0052 3.86989 12.8818C3.8256 12.7578 3.81964 12.6234 3.85278 12.4959L3.85345 12.4933L4.6972 9.17457L4.77424 8.87153L4.53551 8.66961L1.69801 6.26961L1.69802 6.2696L1.69572 6.26768C1.61139 6.19722 1.55011 6.10312 1.51977 5.9975C1.48942 5.89188 1.49141 5.7796 1.52548 5.67513L1.52599 5.67354C1.55862 5.57235 1.62086 5.48327 1.70466 5.41783C1.78831 5.35252 1.8896 5.31376 1.99547 5.30654C1.99567 5.30652 1.99587 5.30651 1.99607 5.3065L5.68225 5.06908L5.99673 5.04883L6.11412 4.75639L7.51412 1.26889L7.51413 1.26889L7.51545 1.26554C7.55391 1.16771 7.62084 1.08368 7.7076 1.02432C7.79382 0.965328 7.89567 0.933408 8.00011 0.932624C8.10456 0.933408 8.20641 0.965328 8.29263 1.02432C8.37938 1.08368 8.44632 1.16771 8.48477 1.26554L8.4853 1.26687L9.8603 4.73562L9.97639 5.02849L10.2907 5.05018L14.0032 5.30643L14.0032 5.30644L14.0062 5.30663C14.1118 5.31327 14.213 5.35167 14.2964 5.4168C14.3798 5.48192 14.4416 5.57072 14.4736 5.67157Z" stroke="#FDAE53"/>
</svg>
