<svg width="18" height="19" viewBox="0 0 18 19" fill="none" xmlns="http://www.w3.org/2000/svg">
<path d="M2.25 5V10.625" stroke="#637381" stroke-width="1.5" stroke-linecap="round" stroke-linejoin="round"/>
<path d="M3.81055 15.6873C4.37337 14.8241 5.14267 14.1149 6.04876 13.624C6.95484 13.1331 7.96909 12.876 8.99961 12.876C10.0301 12.876 11.0444 13.1331 11.9505 13.624C12.8565 14.1149 13.6258 14.8241 14.1887 15.6873" stroke="#637381" stroke-width="1.5" stroke-linecap="round" stroke-linejoin="round"/>
<path d="M15.75 5L9 7.25L2.25 5L9 2.75L15.75 5Z" stroke="#637381" stroke-width="1.5" stroke-linecap="round" stroke-linejoin="round"/>
<path d="M11.9039 6.27954C12.4199 6.84301 12.7608 7.54443 12.8851 8.29828C13.0093 9.05213 12.9116 9.82586 12.6038 10.5251C12.296 11.2244 11.7913 11.819 11.1514 12.2365C10.5116 12.6539 9.76403 12.8762 9 12.8762C8.23597 12.8762 7.48845 12.6539 6.84856 12.2365C6.20867 11.819 5.70405 11.2244 5.39622 10.5251C5.0884 9.82586 4.99067 9.05213 5.11494 8.29828C5.23921 7.54443 5.58011 6.84301 6.0961 6.27954" stroke="#637381" stroke-width="1.5" stroke-linecap="round" stroke-linejoin="round"/>
</svg>
