<svg width="24" height="24" viewBox="0 0 24 24" fill="none" xmlns="http://www.w3.org/2000/svg">
<path d="M21.6658 6.09551C20.9499 6.40607 20.1929 6.61138 19.4182 6.70503C20.2355 6.21677 20.8479 5.44863 21.142 4.54313C20.3739 5.00033 19.5332 5.32246 18.6563 5.49551C18.0701 4.85986 17.2896 4.43674 16.437 4.29251C15.5845 4.14828 14.7082 4.29109 13.9456 4.69855C13.183 5.106 12.5771 5.75506 12.2232 6.54392C11.8692 7.33279 11.787 8.21683 11.9896 9.05741C10.4367 8.97887 8.91763 8.57451 7.53117 7.87061C6.14471 7.16672 4.92183 6.17902 3.94197 4.9717C3.5983 5.57186 3.41771 6.25153 3.41816 6.94313C3.41695 7.5854 3.57456 8.218 3.87698 8.78462C4.1794 9.35123 4.61723 9.83428 5.1515 10.1907C4.53052 10.1738 3.92282 10.0072 3.38007 9.70503V9.75265C3.38472 10.6525 3.70006 11.5232 4.27275 12.2174C4.84544 12.9115 5.64031 13.3866 6.52293 13.5622C6.18317 13.6656 5.83043 13.7201 5.47531 13.7241C5.22949 13.7212 4.98428 13.6989 4.74197 13.6574C4.99332 14.4315 5.47971 15.108 6.13347 15.5928C6.78724 16.0776 7.57586 16.3465 8.38959 16.3622C7.0155 17.4434 5.31901 18.0335 3.57055 18.0384C3.2522 18.0394 2.9341 18.0203 2.61816 17.9812C4.40333 19.1338 6.4837 19.7457 8.60864 19.7431C10.075 19.7584 11.5297 19.4812 12.8878 18.928C14.2459 18.3747 15.4801 17.5563 16.5184 16.5207C17.5566 15.4851 18.3781 14.253 18.9349 12.8964C19.4916 11.5397 19.7725 10.0857 19.761 8.61932C19.761 8.45741 19.761 8.28598 19.761 8.11455C20.5084 7.55723 21.1529 6.87401 21.6658 6.09551Z" fill="#A6B3BB"/>
</svg>
