<svg width="21" height="21" viewBox="0 0 21 21" fill="none" xmlns="http://www.w3.org/2000/svg">
<path d="M19.7186 8.25657C19.7598 7.06378 19.499 5.87992 18.9603 4.8149C18.5948 4.3779 18.0875 4.083 17.5269 3.98157C15.2082 3.77117 12.8799 3.68494 10.5519 3.72324C8.23248 3.6832 5.91253 3.76665 3.60194 3.97324C3.14513 4.05633 2.72237 4.27061 2.38528 4.5899C1.63528 5.28157 1.55194 6.4649 1.46861 7.4649C1.3477 9.26287 1.3477 11.0669 1.46861 12.8649C1.49272 13.4277 1.57652 13.9864 1.71861 14.5316C1.81909 14.9525 2.02238 15.3419 2.31028 15.6649C2.64967 16.0011 3.08226 16.2276 3.55194 16.3149C5.34854 16.5367 7.15879 16.6286 8.96861 16.5899C11.8853 16.6316 14.4436 16.5899 17.4686 16.3566C17.9498 16.2746 18.3946 16.0479 18.7436 15.7066C18.9769 15.4732 19.1512 15.1875 19.2519 14.8732C19.55 13.9588 19.6963 13.0017 19.6853 12.0399C19.7186 11.5732 19.7186 8.75657 19.7186 8.25657ZM8.66861 12.5399V7.38157L13.6019 9.97324C12.2186 10.7399 10.3936 11.6066 8.66861 12.5399Z" fill="#A6B3BB"/>
</svg>
